<?xml version="1.0" encoding="utf-8"?>
<!-- Generator: Adobe Illustrator 19.2.1, SVG Export Plug-In . SVG Version: 6.00 Build 0)  -->
<svg version="1.1" xmlns="http://www.w3.org/2000/svg" xmlns:xlink="http://www.w3.org/1999/xlink" x="0px" y="0px"
	 viewBox="0 0 52.8 52.8" style="enable-background:new 0 0 52.8 52.8;" xml:space="preserve">
<style type="text/css">
	.st0{display:none;}
	.st1{display:inline;fill:#3D6171;}
	.st2{display:inline;fill:#FFFFFF;}
	.st3{display:inline;}
	.st4{display:none;fill:none;stroke:#FFFFFF;stroke-width:4;stroke-miterlimit:10;}
	.st5{display:none;fill:#3D6171;}
	.st6{fill:#FFFFFF;}
	.st7{fill:#3D6171;}
	.st8{display:none;fill:#FFFFFF;}
	.st9{fill:none;stroke:#FFFFFF;stroke-width:4;stroke-miterlimit:10;}
	.st10{fill:none;stroke:#3D6171;stroke-width:4;stroke-miterlimit:10;}
	.st11{fill:none;stroke:#FFFFFF;stroke-miterlimit:10;}
	.st12{display:none;fill:#F8FCFF;}
	.st13{fill:none;stroke:#3D6171;stroke-width:0.25;stroke-miterlimit:10;}
	.st14{display:none;fill:none;stroke:#FFFFFF;stroke-width:0.25;stroke-miterlimit:10;}
	.st15{fill:none;stroke:#3D6171;stroke-miterlimit:10;}
	.st16{fill:none;stroke:#FFFFFF;stroke-width:0.25;stroke-miterlimit:10;}
	.st17{display:inline;fill:none;stroke:#FFFFFF;stroke-width:0.25;stroke-miterlimit:10;}
</style>
<g id="Layer_2" class="st0">
	<rect x="-341.9" y="-361.6" class="st1" width="800" height="800"/>
	
		<image style="display:inline;overflow:visible;" width="800" height="800" xlink:href="A1218E5C.png"  transform="matrix(1 0 0 1 -341.9337 -361.644)">
	</image>
	<rect class="st1" width="52.8" height="52.8"/>
</g>
<g id="Layer_1">
	
		<g id="Layer_1_3_" xmlns:cc="http://creativecommons.org/ns#" xmlns:dc="http://purl.org/dc/elements/1.1/" xmlns:inkscape="http://www.inkscape.org/namespaces/inkscape" xmlns:rdf="http://www.w3.org/1999/02/22-rdf-syntax-ns#" xmlns:sodipodi="http://sodipodi.sourceforge.net/DTD/sodipodi-0.dtd" xmlns:svg="http://www.w3.org/2000/svg" class="st0">
		<path class="st2" d="M41.4,28.2v-0.9c0-1.3-1.6-2.5-3.8-2.5h-25c-2.1,0-3.8,1-3.8,2.5v6.9c0,1.3,1.7,2.5,3.8,2.5h0.8
			c-0.1-0.5-0.2-0.9-0.2-1.4c0-1.3,0.5-2.5,1.4-3.3c0.3-0.3,0.5-0.5,0.9-0.7c0.5-0.3,1.1-0.5,1.8-0.6c0.1,0,0.2,0,0.3,0
			c0.1,0,0.3,0,0.4,0c1.3,0,2.5,0.5,3.3,1.4c0.3,0.3,0.6,0.7,0.8,1.1c0.1,0.3,0.2,0.5,0.3,0.8c0,0.1,0.1,0.2,0.1,0.3
			c0,0.1,0,0.2,0.1,0.3c0,0.1,0,0.3,0,0.4v0c0,0.1,0,0.2,0,0.3c-0.1,0.5-0.2,1-0.4,1.4h6.7c-0.2-0.5-0.3-1.1-0.3-1.6
			c0-1.3,0.5-2.5,1.4-3.3c0.8-0.8,2-1.4,3.3-1.4c1.3,0,2.5,0.5,3.3,1.4c0.8,0.8,1.4,2,1.4,3.3c0,0.6-0.2,1.1-0.4,1.6h0.2
			c2.1,0,3.8-1.2,3.8-2.5v-5.7H14.5v-0.3H41.4z"/>
		<g id="picker_4_" class="st3">
			<path class="st4" d="M21.7,33c-2.9,0-5.3-2.2-5.3-5.2l0,0c0-2.9,2.3-5.3,5.3-5.3l0,0c2.8,0,5.2,2.3,5.2,5.3l0,0
				C26.7,30.7,24.6,33,21.7,33L21.7,33z"/>
			<path class="st5" d="M14.5,31.6c-3.8,0-6.8-3-6.8-6.8l0,0c0-3.8,3-6.8,6.8-6.8l0,0c3.8,0,6.8,3,6.8,6.8l0,0
				C21.1,28.6,18.3,31.6,14.5,31.6L14.5,31.6z"/>
			<path class="st6" d="M14.5,28.2v0.3H29c-0.3,1.8-1,3.3-2.2,4.5c-1.1,1.2-2.6,1.9-4.4,2.1v0c0-0.1,0-0.3,0-0.4
				c0-0.1,0-0.2-0.1-0.3c0-0.1-0.1-0.2-0.1-0.3c-0.1-0.3-0.2-0.5-0.3-0.8c-0.2-0.4-0.5-0.8-0.8-1.1c-0.8-0.8-2-1.4-3.3-1.4
				c-0.1,0-0.3,0-0.4,0c-0.1,0-0.2,0-0.3,0c-0.6,0.1-1.2,0.3-1.8,0.6c-0.5-0.9-0.8-1.9-0.9-2.9c0-0.2,0-0.5,0-0.7
				c0-1.1,0.2-2.1,0.6-3c0.1-0.1,0.1-0.3,0.2-0.4c0.3-0.6,0.8-1.3,1.3-1.8c1.3-1.3,3.1-2.1,5.2-2.1c2,0,3.9,0.8,5.2,2.1
				c0.5,0.5,1,1.1,1.3,1.8c0.1,0.1,0.1,0.3,0.2,0.4c0.4,0.9,0.6,1.9,0.6,3c0,0.1,0,0.3,0,0.5H14.5z"/>
		</g>
		<g id="wheels_7_" class="st3">
			<path class="st6" d="M36.9,35.2c0,0.5-0.1,1-0.3,1.5c-0.2,0.4-0.5,0.8-0.8,1.2c-0.7,0.7-1.6,1.1-2.7,1.1c-1.6,0-2.9-0.9-3.4-2.3
				c-0.2-0.5-0.3-1-0.3-1.5c0-1,0.4-2,1.1-2.7c0.7-0.7,1.6-1.1,2.7-1.1c1.1,0,2,0.4,2.7,1.1C36.5,33.2,36.9,34.2,36.9,35.2z"/>
			<path class="st6" d="M21.6,35.2c0,0.5-0.2,1-0.4,1.5c-0.2,0.4-0.5,0.8-0.8,1.2c-0.7,0.7-1.6,1.1-2.6,1.1c-1.6,0-2.9-0.9-3.5-2.3
				c-0.2-0.5-0.3-1-0.3-1.5c0-1,0.4-2,1.1-2.7c0.4-0.4,0.9-0.7,1.5-0.9c0.4-0.1,0.8-0.2,1.2-0.2c0.1,0,0.2,0,0.2,0
				c1,0,1.8,0.5,2.4,1.1c0.1,0.1,0.2,0.2,0.3,0.3c0.3,0.4,0.5,0.8,0.7,1.3C21.5,34.5,21.6,34.8,21.6,35.2z"/>
		</g>
		<g id="eyes_4_" class="st3">
			<path class="st6" d="M34.9,16.4c-1,0-1.9,0.5-2.4,1.3l0.9,0.5c0.3-0.5,0.9-0.8,1.5-0.8c1,0,1.9,0.8,1.9,1.9
				c0,0.8-0.5,1.5-1.2,1.8c-0.2,0.1-0.4,0.1-0.6,0.1c-0.2,0-0.5,0-0.7-0.1c-0.7-0.3-1.2-1-1.2-1.8c0-0.3,0.1-0.6,0.2-0.8L32.3,18
				c-0.2,0.4-0.3,0.8-0.3,1.3c0,1.3,0.8,2.3,1.9,2.7c0.3,0.1,0.6,0.2,1,0.2c0.3,0,0.7-0.1,1-0.2c1.1-0.4,1.9-1.5,1.9-2.7
				C37.8,17.7,36.5,16.4,34.9,16.4z"/>
			<path class="st6" d="M41.2,16.4c-1.6,0-2.9,1.3-2.9,2.9c0,1.3,0.8,2.3,1.9,2.7c0.3,0.1,0.6,0.2,1,0.2c0.3,0,0.7-0.1,1-0.2
				c1.1-0.4,1.9-1.5,1.9-2.7C44.1,17.7,42.8,16.4,41.2,16.4z M41.9,21.1c-0.2,0.1-0.4,0.1-0.7,0.1c-0.2,0-0.4,0-0.7-0.1
				c-0.7-0.3-1.2-1-1.2-1.8c0-1,0.8-1.9,1.9-1.9c1,0,1.9,0.8,1.9,1.9C43.1,20.1,42.6,20.8,41.9,21.1z"/>
			<circle class="st6" cx="34.9" cy="19.3" r="0.4"/>
			<circle class="st6" cx="41.2" cy="19.3" r="0.4"/>
			<path class="st6" d="M44.4,22.3v0.2c0,0.6-0.5,0.9-0.9,0.9H32.7c-0.6,0-0.9-0.5-0.9-0.9c0-0.6,0.5-0.9,0.9-0.9h10.8
				C43.9,21.6,44.4,21.9,44.4,22.3z"/>
		</g>
	</g>
	
		<g id="Layer_1_1_" xmlns:cc="http://creativecommons.org/ns#" xmlns:dc="http://purl.org/dc/elements/1.1/" xmlns:inkscape="http://www.inkscape.org/namespaces/inkscape" xmlns:rdf="http://www.w3.org/1999/02/22-rdf-syntax-ns#" xmlns:sodipodi="http://sodipodi.sourceforge.net/DTD/sodipodi-0.dtd" xmlns:svg="http://www.w3.org/2000/svg">
		<circle class="st7" cx="26.4" cy="26.4" r="24"/>
		<path class="st8" d="M16.6,23.1c-1.3,0-2.7,0.2-3.7,0.3v-8.1l4.8-1.3l-4.8-1.5h-0.4v10.9c-1.8,0.3-2.9,0.9-2.9,1.5
			c0,1,3.1,2,7.2,2s7.2-0.9,7.2-2C23.8,23.8,20.7,23.1,16.6,23.1z M13.8,25.6c-0.6,0-1.1-0.3-1.1-0.6s0.5-0.6,1.1-0.6s1,0.3,1,0.6
			S14.4,25.6,13.8,25.6z"/>
		<path class="st8" d="M12.7,16.9L12.7,16.9c-0.1,0-0.3-0.2-0.3-0.3v-4.2c0-0.1,0.1-0.3,0.3-0.3l0,0c0.1,0,0.3,0.1,0.3,0.3v4.2
			C13,16.8,12.9,16.9,12.7,16.9z"/>
		<path class="st6" d="M37.6,36.7h-25c-2.1,0-3.8-1.2-3.8-2.5v-6.9c0-1.5,1.6-2.5,3.8-2.5h25.1c2.1,0,3.8,1.2,3.8,2.5v6.9
			C41.4,35.5,39.7,36.7,37.6,36.7z"/>
		<g id="picker_1_">
			<path class="st9" d="M21.7,33c-2.9,0-5.3-2.2-5.3-5.2l0,0c0-2.9,2.3-5.3,5.3-5.3l0,0c2.8,0,5.2,2.3,5.2,5.3l0,0
				C26.7,30.7,24.6,33,21.7,33L21.7,33z"/>
			<path class="st5" d="M14.5,31.6c-3.8,0-6.8-3-6.8-6.8l0,0c0-3.8,3-6.8,6.8-6.8l0,0c3.8,0,6.8,3,6.8,6.8l0,0
				C21.1,28.6,18.3,31.6,14.5,31.6L14.5,31.6z"/>
			<path class="st6" d="M21.7,34.2c-3.6,0-6.5-2.9-6.5-6.5l0,0c0-3.6,2.8-6.4,6.5-6.4l0,0c3.6,0,6.4,2.8,6.4,6.4l0,0
				C27.9,31.3,25.3,34.2,21.7,34.2L21.7,34.2z"/>
		</g>
		<g id="wheels_6_">
			<path class="st10" d="M33.1,37.8c-1.5,0-2.7-1.2-2.7-2.7l0,0c0-1.5,1.2-2.7,2.7-2.7l0,0c1.5,0,2.7,1.2,2.7,2.7l0,0
				C35.7,36.7,34.5,37.8,33.1,37.8L33.1,37.8z"/>
			<path class="st10" d="M17.8,37.8c-1.5,0-2.7-1.2-2.7-2.7l0,0c0-1.5,1.2-2.7,2.7-2.7l0,0c1.5,0,2.7,1.2,2.7,2.7l0,0
				C20.2,36.7,19.2,37.8,17.8,37.8L17.8,37.8z"/>
		</g>
		<g id="wheels_5_">
			<path class="st6" d="M33.1,39c-2.1,0-3.8-1.6-3.8-3.8l0,0c0-2.1,1.7-3.7,3.8-3.7l0,0c2.1,0,3.8,1.6,3.8,3.7l0,0
				C36.9,37.3,35.2,39,33.1,39L33.1,39z"/>
			<path class="st6" d="M17.8,39c-2.1,0-3.8-1.6-3.8-3.8l0,0c0-2.1,1.7-3.7,3.8-3.7l0,0c2.1,0,3.8,1.6,3.8,3.7l0,0
				C21.4,37.3,19.9,39,17.8,39L17.8,39z"/>
		</g>
		<g id="eyes_1_">
			<circle class="st11" cx="34.9" cy="19.3" r="2.4"/>
			<circle class="st11" cx="41.2" cy="19.3" r="2.4"/>
			<circle class="st6" cx="34.9" cy="19.3" r="0.4"/>
			<circle class="st6" cx="41.2" cy="19.3" r="0.4"/>
			<path class="st6" d="M43.5,21.6H32.7c-0.5,0-0.9,0.3-0.9,0.9l0,0c0,0.4,0.3,0.9,0.9,0.9h10.8c0.5,0,0.9-0.3,0.9-0.9v-0.2
				C44.4,21.9,43.9,21.6,43.5,21.6z"/>
			<path class="st12" d="M36.1,14.4h-7.2l-1.4-3.6C21,3.6,15.3,8.7,15,8.8C14.4,9,15.1,9,14.8,8.4c-0.3-0.6,0.6-1.7,1.2-1.8
				c0.1,0,8.4-5.3,16.3,5.8h3.8h1.8l1.3-0.1v2.3h-0.6h-0.8h-0.8H36L36.1,14.4L36.1,14.4z"/>
			<line class="st13" x1="31.8" y1="17.5" x2="33.7" y2="18.6"/>
		</g>
		<line class="st14" x1="10.2" y1="38.8" x2="41.5" y2="38.8"/>
		<line class="st13" x1="14.5" y1="28.3" x2="41.5" y2="28.3"/>
	</g>
	
		<g id="Layer_1_Inverted" xmlns:cc="http://creativecommons.org/ns#" xmlns:dc="http://purl.org/dc/elements/1.1/" xmlns:inkscape="http://www.inkscape.org/namespaces/inkscape" xmlns:rdf="http://www.w3.org/1999/02/22-rdf-syntax-ns#" xmlns:sodipodi="http://sodipodi.sourceforge.net/DTD/sodipodi-0.dtd" xmlns:svg="http://www.w3.org/2000/svg" class="st0">
		<circle class="st2" cx="26.4" cy="26.4" r="24"/>
		<g>
			<path class="st1" d="M16.6,23.1c-1.3,0-2.7,0.2-3.7,0.3v-8.1l4.8-1.3l-4.8-1.5h-0.4v10.9c-1.8,0.3-2.9,0.9-2.9,1.5
				c0,1,3.1,2,7.2,2s7.2-0.9,7.2-2C23.8,23.8,20.7,23.1,16.6,23.1z M13.8,25.6c-0.6,0-1.1-0.3-1.1-0.6s0.5-0.6,1.1-0.6s1,0.3,1,0.6
				S14.4,25.6,13.8,25.6z"/>
			<path class="st1" d="M12.7,16.9L12.7,16.9c-0.1,0-0.3-0.2-0.3-0.3v-4.2c0-0.1,0.1-0.3,0.3-0.3l0,0c0.1,0,0.3,0.1,0.3,0.3v4.2
				C13,16.8,12.9,16.9,12.7,16.9z"/>
		</g>
		<path class="st1" d="M37.6,36.7h-25c-2.1,0-3.8-1.2-3.8-2.5v-6.9c0-1.5,1.6-2.5,3.8-2.5h25.1c2.1,0,3.8,1.2,3.8,2.5v6.9
			C41.4,35.5,39.7,36.7,37.6,36.7z"/>
		<g id="picker_2_" class="st3">
			<path class="st10" d="M21.7,33c-2.9,0-5.3-2.2-5.3-5.2l0,0c0-2.9,2.3-5.3,5.3-5.3l0,0c2.8,0,5.2,2.3,5.2,5.3l0,0
				C26.7,30.7,24.6,33,21.7,33L21.7,33z"/>
			<path class="st7" d="M21.7,34.2c-3.6,0-6.5-2.9-6.5-6.5l0,0c0-3.6,2.8-6.4,6.5-6.4l0,0c3.6,0,6.4,2.8,6.4,6.4l0,0
				C27.9,31.3,25.3,34.2,21.7,34.2L21.7,34.2z"/>
		</g>
		<g id="wheels_2_" class="st3">
			<path class="st9" d="M33.1,37.8c-1.5,0-2.7-1.2-2.7-2.7l0,0c0-1.5,1.2-2.7,2.7-2.7l0,0c1.5,0,2.7,1.2,2.7,2.7l0,0
				C35.7,36.7,34.5,37.8,33.1,37.8L33.1,37.8z"/>
			<path class="st9" d="M17.8,37.8c-1.5,0-2.7-1.2-2.7-2.7l0,0c0-1.5,1.2-2.7,2.7-2.7l0,0c1.5,0,2.7,1.2,2.7,2.7l0,0
				C20.2,36.7,19.2,37.8,17.8,37.8L17.8,37.8z"/>
		</g>
		<g id="wheels_1_" class="st3">
			<path class="st7" d="M33.1,39c-2.1,0-3.8-1.6-3.8-3.8l0,0c0-2.1,1.7-3.7,3.8-3.7l0,0c2.1,0,3.8,1.6,3.8,3.7l0,0
				C36.9,37.3,35.2,39,33.1,39L33.1,39z"/>
			<path class="st7" d="M17.8,39c-2.1,0-3.8-1.6-3.8-3.8l0,0c0-2.1,1.7-3.7,3.8-3.7l0,0c2.1,0,3.8,1.6,3.8,3.7l0,0
				C21.4,37.3,19.9,39,17.8,39L17.8,39z"/>
		</g>
		<g id="eyes_2_" class="st3">
			<circle class="st15" cx="34.9" cy="19.3" r="2.4"/>
			<circle class="st15" cx="41.2" cy="19.3" r="2.4"/>
			<circle class="st7" cx="34.9" cy="19.3" r="0.4"/>
			<circle class="st7" cx="41.2" cy="19.3" r="0.4"/>
			<path class="st7" d="M43.5,21.6H32.7c-0.5,0-0.9,0.3-0.9,0.9l0,0c0,0.4,0.3,0.9,0.9,0.9h10.8c0.5,0,0.9-0.3,0.9-0.9v-0.2
				C44.4,21.9,43.9,21.6,43.5,21.6z"/>
			<line class="st16" x1="31.8" y1="17.5" x2="33.7" y2="18.6"/>
		</g>
		<line class="st13" x1="10.2" y1="38.8" x2="41.5" y2="38.8"/>
		<line class="st17" x1="14.5" y1="28.3" x2="41.5" y2="28.3"/>
	</g>
</g>
</svg>
