<?xml version="1.0" encoding="utf-8"?>
<!-- Generator: Adobe Illustrator 19.2.1, SVG Export Plug-In . SVG Version: 6.00 Build 0)  -->
<svg version="1.1" id="Layer_1" xmlns="http://www.w3.org/2000/svg" xmlns:xlink="http://www.w3.org/1999/xlink" x="0px" y="0px"
	 viewBox="0 0 135 50" style="enable-background:new 0 0 135 50;" xml:space="preserve">
<style type="text/css">
	.st0{display:none;}
	.st1{fill:#3D6171;}
	.st2{display:none;fill:#FFFFFF;}
	.st3{fill:#FFFFFF;}
	.st4{fill:none;stroke:#FFFFFF;stroke-width:4;stroke-miterlimit:10;}
	.st5{display:none;fill:#3D6171;}
	.st6{fill:none;stroke:#3D6171;stroke-width:4;stroke-miterlimit:10;}
	.st7{fill:none;stroke:#FFFFFF;stroke-miterlimit:10;}
	.st8{display:none;fill:#F8FCFF;}
	.st9{fill:none;stroke:#3D6171;stroke-width:0.25;stroke-miterlimit:10;}
	.st10{display:none;fill:none;stroke:#FFFFFF;stroke-width:0.25;stroke-miterlimit:10;}
	.st11{display:inline;fill:#FFFFFF;}
	.st12{display:inline;}
	.st13{display:inline;fill:#3D6171;}
	.st14{fill:none;stroke:#3D6171;stroke-miterlimit:10;}
	.st15{fill:none;stroke:#FFFFFF;stroke-width:0.25;stroke-miterlimit:10;}
	.st16{display:inline;fill:none;stroke:#3D6171;stroke-width:0.25;stroke-miterlimit:10;}
	.st17{display:inline;fill:none;stroke:#FFFFFF;stroke-width:0.25;stroke-miterlimit:10;}
	.st18{font-family:'ArialMT';}
	.st19{font-size:9px;}
</style>
<g id="Layer_2" class="st0">
	
		<image style="display:inline;overflow:visible;enable-background:new    ;" width="522" height="193" xlink:href="Logo_banner.png"  transform="matrix(0.2587 0 0 0.2587 -1.403079e-002 3.791582e-002)">
	</image>
</g>
<g id="Layer_1_2_">
	
		<g id="Layer_1_1_" xmlns:cc="http://creativecommons.org/ns#" xmlns:dc="http://purl.org/dc/elements/1.1/" xmlns:inkscape="http://www.inkscape.org/namespaces/inkscape" xmlns:rdf="http://www.w3.org/1999/02/22-rdf-syntax-ns#" xmlns:sodipodi="http://sodipodi.sourceforge.net/DTD/sodipodi-0.dtd" xmlns:svg="http://www.w3.org/2000/svg">
		<circle class="st1" cx="35.3" cy="25" r="24"/>
		<path class="st2" d="M25.5,21.7c-1.3,0-2.7,0.1-3.8,0.3v-8.1l4.8-1.3l-4.8-1.5h-0.4v11c-1.8,0.3-2.9,0.9-2.9,1.5
			c0,1,3.1,1.9,7.2,1.9s7.2-0.9,7.2-1.9C32.7,22.5,29.6,21.7,25.5,21.7z M22.7,24.3c-0.6,0-1.1-0.3-1.1-0.6c0-0.3,0.5-0.6,1.1-0.6
			s1,0.3,1,0.6S23.3,24.3,22.7,24.3z"/>
		<path class="st2" d="M21.6,15.5L21.6,15.5c-0.1,0-0.3-0.1-0.3-0.3V11c0-0.1,0.1-0.3,0.3-0.3l0,0c0.1,0,0.3,0.1,0.3,0.3v4.2
			C21.9,15.4,21.8,15.5,21.6,15.5z"/>
		<path class="st3" d="M46.5,35.3h-25c-2.1,0-3.8-1.2-3.8-2.5v-6.9c0-1.5,1.6-2.5,3.8-2.5h25.1c2.1,0,3.8,1.2,3.8,2.5v6.9
			C50.3,34.2,48.6,35.3,46.5,35.3z"/>
		<g id="picker_1_">
			<path class="st4" d="M30.6,31.6c-2.8,0-5.3-2.3-5.3-5.3l0,0c0-2.8,2.3-5.3,5.3-5.3l0,0c2.9,0,5.2,2.3,5.2,5.3l0,0
				C35.6,29.3,33.5,31.6,30.6,31.6L30.6,31.6z"/>
			<path class="st5" d="M23.4,30.3c-3.8,0-6.8-3-6.8-6.8l0,0c0-3.8,3-6.8,6.8-6.8l0,0c3.8,0,6.8,3,6.8,6.8l0,0
				C30,27.3,27.2,30.3,23.4,30.3L23.4,30.3z"/>
			<path class="st3" d="M30.6,32.8c-3.6,0-6.4-2.9-6.4-6.5l0,0c0-3.6,2.8-6.5,6.4-6.5l0,0c3.6,0,6.5,2.9,6.5,6.5l0,0
				C36.8,29.9,34.2,32.8,30.6,32.8L30.6,32.8z"/>
		</g>
		<g id="wheels_6_">
			<path class="st6" d="M42,36.4c-1.5,0-2.7-1.2-2.7-2.7l0,0c0-1.5,1.2-2.7,2.7-2.7l0,0c1.5,0,2.7,1.2,2.7,2.7l0,0
				C44.6,35.3,43.4,36.4,42,36.4L42,36.4z"/>
			<path class="st6" d="M26.7,36.4c-1.5,0-2.7-1.2-2.7-2.7l0,0c0-1.5,1.2-2.7,2.7-2.7l0,0c1.5,0,2.7,1.2,2.7,2.7l0,0
				C29.1,35.3,28.1,36.4,26.7,36.4L26.7,36.4z"/>
		</g>
		<g id="wheels_5_">
			<path class="st3" d="M42,37.6c-2.1,0-3.8-1.7-3.8-3.8l0,0c0-2.1,1.7-3.8,3.8-3.8l0,0c2.1,0,3.8,1.7,3.8,3.8l0,0
				C45.8,35.9,44.1,37.6,42,37.6L42,37.6z"/>
			<path class="st3" d="M26.7,37.6c-2.1,0-3.8-1.7-3.8-3.8l0,0c0-2.1,1.6-3.8,3.8-3.8l0,0c2.1,0,3.8,1.7,3.8,3.8l0,0
				C30.3,35.9,28.8,37.6,26.7,37.6L26.7,37.6z"/>
		</g>
		<g id="eyes_1_">
			<circle class="st7" cx="43.8" cy="18" r="2.4"/>
			<circle class="st7" cx="50.1" cy="18" r="2.4"/>
			<circle class="st3" cx="43.8" cy="18" r="0.4"/>
			<circle class="st3" cx="50.1" cy="18" r="0.4"/>
			<path class="st3" d="M52.4,20.2H41.6c-0.5,0-0.9,0.3-0.9,0.9l0,0c0,0.5,0.3,0.9,0.9,0.9h10.8c0.5,0,0.9-0.3,0.9-0.9V21
				C53.3,20.5,52.8,20.2,52.4,20.2z"/>
			<path class="st8" d="M45,13h-7.2l-1.4-3.6c-6.6-7.2-12.3-2.1-12.6-1.9C23.3,7.6,24,7.6,23.7,7s0.6-1.6,1.2-1.8
				c0.1,0,8.4-5.3,16.3,5.8H45h1.8l1.3-0.1v2.3h-0.6h-0.8h-0.8h-1.2L45,13L45,13z"/>
			<line class="st9" x1="40.7" y1="16.2" x2="42.6" y2="17.2"/>
		</g>
		<line class="st10" x1="19.1" y1="37.4" x2="50.4" y2="37.4"/>
		<line class="st9" x1="23.4" y1="26.9" x2="50.4" y2="26.9"/>
	</g>
	
		<g id="Layer_1_Inverted" xmlns:cc="http://creativecommons.org/ns#" xmlns:dc="http://purl.org/dc/elements/1.1/" xmlns:inkscape="http://www.inkscape.org/namespaces/inkscape" xmlns:rdf="http://www.w3.org/1999/02/22-rdf-syntax-ns#" xmlns:sodipodi="http://sodipodi.sourceforge.net/DTD/sodipodi-0.dtd" xmlns:svg="http://www.w3.org/2000/svg" class="st0">
		<circle class="st11" cx="35.3" cy="25" r="24"/>
		<g class="st12">
			<path class="st1" d="M25.5,21.7c-1.3,0-2.7,0.1-3.8,0.3v-8.1l4.8-1.3l-4.8-1.5h-0.4v11c-1.8,0.3-2.9,0.9-2.9,1.5
				c0,1,3.1,1.9,7.2,1.9s7.2-0.9,7.2-1.9C32.7,22.5,29.6,21.7,25.5,21.7z M22.7,24.3c-0.6,0-1.1-0.3-1.1-0.6c0-0.3,0.5-0.6,1.1-0.6
				s1,0.3,1,0.6S23.3,24.3,22.7,24.3z"/>
			<path class="st1" d="M21.6,15.5L21.6,15.5c-0.1,0-0.3-0.1-0.3-0.3V11c0-0.1,0.1-0.3,0.3-0.3l0,0c0.1,0,0.3,0.1,0.3,0.3v4.2
				C21.9,15.4,21.8,15.5,21.6,15.5z"/>
		</g>
		<path class="st13" d="M46.5,35.3h-25c-2.1,0-3.8-1.2-3.8-2.5v-6.9c0-1.5,1.6-2.5,3.8-2.5h25.1c2.1,0,3.8,1.2,3.8,2.5v6.9
			C50.3,34.2,48.6,35.3,46.5,35.3z"/>
		<g id="picker_2_" class="st12">
			<path class="st6" d="M30.6,31.6c-2.8,0-5.3-2.3-5.3-5.3l0,0c0-2.8,2.3-5.3,5.3-5.3l0,0c2.9,0,5.2,2.3,5.2,5.3l0,0
				C35.6,29.3,33.5,31.6,30.6,31.6L30.6,31.6z"/>
			<path class="st1" d="M30.6,32.8c-3.6,0-6.4-2.9-6.4-6.5l0,0c0-3.6,2.8-6.5,6.4-6.5l0,0c3.6,0,6.5,2.9,6.5,6.5l0,0
				C36.8,29.9,34.2,32.8,30.6,32.8L30.6,32.8z"/>
		</g>
		<g id="wheels_2_" class="st12">
			<path class="st4" d="M42,36.4c-1.5,0-2.7-1.2-2.7-2.7l0,0c0-1.5,1.2-2.7,2.7-2.7l0,0c1.5,0,2.7,1.2,2.7,2.7l0,0
				C44.6,35.3,43.4,36.4,42,36.4L42,36.4z"/>
			<path class="st4" d="M26.7,36.4c-1.5,0-2.7-1.2-2.7-2.7l0,0c0-1.5,1.2-2.7,2.7-2.7l0,0c1.5,0,2.7,1.2,2.7,2.7l0,0
				C29.1,35.3,28.1,36.4,26.7,36.4L26.7,36.4z"/>
		</g>
		<g id="wheels_1_" class="st12">
			<path class="st1" d="M42,37.6c-2.1,0-3.8-1.7-3.8-3.8l0,0c0-2.1,1.7-3.8,3.8-3.8l0,0c2.1,0,3.8,1.7,3.8,3.8l0,0
				C45.8,35.9,44.1,37.6,42,37.6L42,37.6z"/>
			<path class="st1" d="M26.7,37.6c-2.1,0-3.8-1.7-3.8-3.8l0,0c0-2.1,1.6-3.8,3.8-3.8l0,0c2.1,0,3.8,1.7,3.8,3.8l0,0
				C30.3,35.9,28.8,37.6,26.7,37.6L26.7,37.6z"/>
		</g>
		<g id="eyes_2_" class="st12">
			<circle class="st14" cx="43.8" cy="18" r="2.4"/>
			<circle class="st14" cx="50.1" cy="18" r="2.4"/>
			<circle class="st1" cx="43.8" cy="18" r="0.4"/>
			<circle class="st1" cx="50.1" cy="18" r="0.4"/>
			<path class="st1" d="M52.4,20.2H41.6c-0.5,0-0.9,0.3-0.9,0.9l0,0c0,0.5,0.3,0.9,0.9,0.9h10.8c0.5,0,0.9-0.3,0.9-0.9V21
				C53.3,20.5,52.8,20.2,52.4,20.2z"/>
			<line class="st15" x1="40.7" y1="16.2" x2="42.6" y2="17.2"/>
		</g>
		<line class="st16" x1="19.1" y1="37.4" x2="50.4" y2="37.4"/>
		<line class="st17" x1="23.4" y1="26.9" x2="50.4" y2="26.9"/>
	</g>
	<text transform="matrix(1 0 0 1 68.25 23)" class="st1 st18 st19">The Ball</text>
	<text transform="matrix(1 0 0 1 68.25 33.8)" class="st1 st18 st19">Picking Robot</text>
</g>
</svg>
